<svg xmlns="http://www.w3.org/2000/svg" viewBox="152.1 126.7 576.2 220.1" role="img" aria-label="purch">
  <defs>
    <linearGradient id="blue" x1="0" y1="0" x2="1" y2="1">
      <stop offset="0%" stop-color="#69AFFF"/>
      <stop offset="100%" stop-color="#4384D5"/>
    </linearGradient>
  </defs>
  <g transform="translate(70,95) scale(1.05)"><path d=" M 82 82 C 82 55 104 34 132 34 C 174 34 208 64 215 103 C 220 132 208 155 185 166 C 172 172 158 176 143 176 L 143 214 C 143 226 133 236 121 236 L 82 236 Z " fill="#F7F8F8"/> <path d=" M 82 82 C 108 62 137 53 164 57 C 190 61 211 78 215 103 C 218 121 216 135 211 146 C 197 125 176 106 151 97 C 129 89 105 85 82 82 Z " fill="url(#blue)"/> <path d=" M 82 82 C 109 83 132 89 151 97 C 174 107 195 123 211 146 C 201 161 182 171 160 175 C 151 177 143 177 135 176 C 121 174 110 164 108 151 C 106 139 111 126 121 118 C 128 112 137 109 147 109 C 158 109 169 113 177 120 L 188 128 L 176 132 C 170 145 158 153 144 154 C 137 155 130 153 125 150 C 118 146 113 140 112 132 C 110 124 113 116 119 110 C 108 101 96 92 82 82 Z " fill="#F7F8F8"/> <path d=" M 139 113 C 153 105 171 110 179 121 C 183 127 184 134 182 140 L 195 143 L 181 149 C 176 158 166 164 154 165 C 142 166 132 161 126 153 C 120 145 119 135 123 126 C 127 120 132 116 139 113 Z " fill="#07111B"/> <circle cx="151" cy="126" r="5.5" fill="#F7F8F8"/></g>
  <path d="M354.0625 304.5947265625V195.8447265625H374.94873046875V209.1552734375H375.93994140625Q377.35595703125 206.0400390625 380.081787109375 202.71240234375Q382.8076171875 199.384765625 387.303466796875 197.119140625Q391.79931640625 194.853515625 398.525390625 194.853515625Q407.3046875 194.853515625 414.59716796875 199.384765625Q421.8896484375 203.916015625 426.243896484375 212.978515625Q430.59814453125 222.041015625 430.59814453125 235.56396484375Q430.59814453125 248.73291015625 426.35009765625 257.830810546875Q422.10205078125 266.9287109375 414.8095703125 271.636962890625Q407.51708984375 276.34521484375 398.3837890625 276.34521484375Q391.94091796875 276.34521484375 387.48046875 274.150390625Q383.02001953125 271.95556640625 380.223388671875 268.734130859375Q377.4267578125 265.5126953125 375.93994140625 262.32666015625H375.302734375V304.5947265625ZM391.8701171875 259.2822265625Q400.15380859375 259.2822265625 404.508056640625 252.626953125Q408.8623046875 245.9716796875 408.8623046875 235.4931640625Q408.8623046875 225.08544921875 404.54345703125 218.465576171875Q400.224609375 211.845703125 391.8701171875 211.845703125Q383.6572265625 211.845703125 379.232177734375 218.28857421875Q374.80712890625 224.7314453125 374.80712890625 235.4931640625Q374.80712890625 246.2548828125 379.267578125 252.7685546875Q383.72802734375 259.2822265625 391.8701171875 259.2822265625ZM465.724609375 275.9912109375Q453.4052734375 275.9912109375 445.935791015625 268.0615234375Q438.46630859375 260.1318359375 438.46630859375 246.18408203125V195.8447265625H459.70654296875V242.50244140625Q459.70654296875 249.86572265625 463.52978515625 254.04296875Q467.35302734375 258.22021484375 474.00830078125 258.22021484375Q480.80517578125 258.22021484375 485.088623046875 253.865966796875Q489.3720703125 249.51171875 489.3720703125 241.65283203125V195.8447265625H510.68310546875V275.0H490.57568359375L490.29248046875 258.57421875Q486.96484375 266.99951171875 480.840576171875 271.495361328125Q474.71630859375 275.9912109375 465.724609375 275.9912109375ZM521.7373046875 275.0V195.8447265625H542.26953125V209.65087890625H543.119140625Q545.31396484375 202.3583984375 550.447021484375 198.570556640625Q555.580078125 194.78271484375 562.2353515625 194.78271484375Q565.84619140625 194.78271484375 569.10302734375 195.49072265625V214.46533203125Q567.68701171875 214.04052734375 564.961181640625 213.721923828125Q562.2353515625 213.4033203125 559.89892578125 213.4033203125Q552.53564453125 213.4033203125 547.756591796875 218.00537109375Q542.9775390625 222.607421875 542.9775390625 229.970703125V275.0ZM609.185546875 276.5576171875Q597.22021484375 276.5576171875 588.547119140625 271.424560546875Q579.8740234375 266.29150390625 575.165771484375 257.122802734375Q570.45751953125 247.9541015625 570.45751953125 235.7763671875Q570.45751953125 223.52783203125 575.165771484375 214.32373046875Q579.8740234375 205.11962890625 588.547119140625 199.986572265625Q597.22021484375 194.853515625 609.185546875 194.853515625Q623.27490234375 194.853515625 632.69140625 201.898193359375Q642.10791015625 208.94287109375 644.37353515625 221.19140625L624.6201171875 224.873046875Q623.27490234375 218.71337890625 619.416259765625 215.137939453125Q615.5576171875 211.5625 609.39794921875 211.5625Q600.90185546875 211.5625 596.51220703125 218.253173828125Q592.12255859375 224.94384765625 592.12255859375 235.70556640625Q592.12255859375 246.32568359375 596.51220703125 253.087158203125Q600.90185546875 259.8486328125 609.39794921875 259.8486328125Q615.5576171875 259.8486328125 619.5224609375 256.131591796875Q623.4873046875 252.41455078125 624.76171875 246.04248046875L644.51513671875 249.6533203125Q642.24951171875 262.18505859375 632.8330078125 269.371337890625Q623.41650390625 276.5576171875 609.185546875 276.5576171875ZM673.34033203125 229.19189453125V275.0H652.10009765625V169.5068359375H672.91552734375V210.99609375Q676.384765625 203.27880859375 682.33203125 199.066162109375Q688.279296875 194.853515625 697.05859375 194.853515625Q709.3779296875 194.853515625 716.847412109375 202.783203125Q724.31689453125 210.712890625 724.31689453125 224.66064453125V275.0H703.005859375V228.34228515625Q703.005859375 220.97900390625 699.218017578125 216.8017578125Q695.43017578125 212.62451171875 688.7041015625 212.62451171875Q681.9072265625 212.62451171875 677.623779296875 216.978759765625Q673.34033203125 221.3330078125 673.34033203125 229.19189453125Z" fill="#F7F8F8"/>
</svg>
