<svg xmlns="http://www.w3.org/2000/svg" viewBox="0 0 160 52" fill="none">
  <!-- Icon -->
  <ellipse cx="20" cy="50.4" rx="8" ry="1" fill="#1B1D20" opacity="0.08" />
  <path d="M20 42 L20 50" stroke="#1B1D20" stroke-width="0.8" stroke-linecap="round" />
  <path d="M6.8 18 L20 4 L33.2 18 Z" fill="#4B9CD3" stroke="#1B1D20" stroke-width="0.5" stroke-linejoin="round" />
  <circle cx="20" cy="3.2" r="0.8" fill="#1B1D20" />
  <rect x="9.2" y="17.2" width="21.6" height="24.8" rx="0.6" fill="#FBF9F3" stroke="#1B1D20" stroke-width="0.5" />
  <path d="M9.2 24 L30.8 24" stroke="#1B1D20" stroke-width="0.2" opacity="0.25" />
  <path d="M9.2 32 L30.8 32" stroke="#1B1D20" stroke-width="0.2" opacity="0.25" />
  <path d="M9.2 39 L30.8 39" stroke="#1B1D20" stroke-width="0.2" opacity="0.25" />
  <circle cx="20" cy="28" r="4.4" fill="#1B1D20" opacity="0.9" />
  <circle cx="20" cy="28" r="4.4" fill="none" stroke="#4B9CD3" stroke-width="0.36" opacity="0.55" />
  <path d="M16.8 35 L23.2 35" stroke="#1B1D20" stroke-width="0.6" stroke-linecap="round" />
  <circle cx="16.8" cy="35" r="0.4" fill="#1B1D20" />
  <circle cx="23.2" cy="35" r="0.4" fill="#1B1D20" />
  <g transform="translate(18.8 30.8)">
    <path d="M0 3 C 0 1.2, 1.4 0, 2.8 0 C 4.4 0, 5.6 1.2, 5.6 2.8 C 5.6 3.4, 5.4 3.8, 5 4.2 L 5.6 5 C 5.8 5.2, 5.6 5.6, 5.2 5.6 L 0.8 5.6 C 0.4 5.6, 0 5.2, 0 5 Z"
      fill="#FBF9F3" stroke="#1B1D20" stroke-width="0.4" stroke-linejoin="round" />
    <path d="M2 2.4 C 2.8 1.6, 4 1.6, 4.6 2.4 C 4.2 3.6, 3 4, 2.2 3.4 Z" fill="#1B1D20" opacity="0.85" />
    <path d="M0 2.8 L -1 3.2 L 0 3.8 Z" fill="#4B9CD3" stroke="#1B1D20" stroke-width="0.28" stroke-linejoin="round" />
    <circle cx="1.2" cy="2" r="0.32" fill="#1B1D20" />
    <path d="M5.6 4 L 7.2 3.4 L 6.8 4.8 Z" fill="#FBF9F3" stroke="#1B1D20" stroke-width="0.36" stroke-linejoin="round" />
  </g>
  <!-- Wordmark -->
  <text x="46" y="34" font-family="Georgia, serif" font-size="26" font-weight="500" fill="#1B1D20" letter-spacing="-0.5">purch</text>
</svg>
